<?xml version="1.0" standalone="no"?>
<!DOCTYPE svg PUBLIC "-//W3C//DTD SVG 20010904//EN"
 "http://www.w3.org/TR/2001/REC-SVG-20010904/DTD/svg10.dtd">
<svg version="1.0" xmlns="http://www.w3.org/2000/svg"
 width="1000.000000pt" height="1000.000000pt" viewBox="0 0 1000.000000 1000.000000"
 preserveAspectRatio="xMidYMid meet">
<metadata>
Created by potrace 1.11, written by Peter Selinger 2001-2013
</metadata>
<g transform="translate(0.000000,1000.000000) scale(0.100000,-0.100000)"
fill="#000000" stroke="none">
<path d="M4795 9937 c-11 -7 -23 -16 -26 -21 -4 -4 -16 -3 -27 3 -27 14 -35
14 -26 -1 5 -7 3 -8 -7 -2 -23 14 -38 13 -82 -2 -23 -8 -43 -11 -45 -6 -4 14
-114 1 -158 -18 -40 -19 -54 -20 -86 -6 -9 4 -26 2 -37 -4 -12 -6 -27 -7 -34
-3 -19 12 -37 12 -37 1 0 -6 -6 -8 -14 -5 -7 3 -17 2 -22 -3 -8 -7 -83 -21
-121 -23 -7 0 -13 -3 -13 -7 0 -3 -15 -6 -32 -7 -45 -3 -155 -26 -164 -35 -4
-5 -23 -8 -41 -8 -19 0 -52 -9 -74 -21 -23 -11 -38 -16 -34 -10 3 7 -12 4 -34
-5 -23 -9 -48 -14 -56 -10 -8 3 -15 1 -15 -4 0 -6 -7 -10 -15 -10 -8 0 -15 -4
-15 -9 0 -4 -11 -6 -25 -3 -15 2 -25 0 -25 -7 0 -6 -8 -11 -17 -11 -10 0 -27
-7 -37 -15 -10 -8 -23 -12 -29 -8 -6 3 -15 -1 -21 -9 -15 -20 -56 -41 -56 -29
0 16 -119 -18 -148 -42 -8 -6 -25 -12 -38 -13 -34 -1 -73 -24 -79 -45 -4 -11
-12 -15 -25 -12 -29 8 -63 -3 -95 -31 -16 -14 -33 -22 -37 -20 -5 3 -20 -2
-35 -11 -17 -12 -23 -13 -18 -4 5 8 -5 2 -22 -14 -17 -16 -43 -28 -61 -30 -18
-1 -32 -5 -32 -8 0 -3 -37 -25 -82 -48 -109 -56 -122 -64 -131 -78 -4 -7 -15
-13 -23 -13 -9 0 -22 -7 -30 -15 -9 -8 -25 -15 -36 -15 -12 0 -18 -3 -15 -6 8
-8 -37 -44 -55 -44 -8 0 -23 -8 -34 -18 -26 -23 -74 -54 -74 -47 0 3 -11 -6
-25 -20 -14 -14 -31 -25 -38 -25 -7 0 -17 -10 -22 -22 -6 -12 -21 -23 -35 -25
-13 -2 -27 -7 -30 -12 -3 -4 -18 -15 -35 -24 -16 -8 -37 -25 -45 -36 -8 -12
-19 -21 -25 -21 -7 0 -22 -11 -35 -25 -13 -14 -28 -25 -34 -25 -15 0 -66 -52
-66 -67 0 -7 -8 -13 -18 -13 -11 0 -27 -9 -37 -20 -10 -11 -22 -20 -27 -20 -5
0 -22 -12 -37 -27 -15 -16 -42 -39 -59 -53 -18 -14 -32 -31 -32 -37 0 -7 -4
-13 -10 -13 -13 0 -195 -172 -246 -232 -12 -14 -26 -27 -30 -29 -5 -2 -27 -28
-49 -56 -21 -29 -47 -56 -57 -59 -10 -3 -18 -10 -18 -15 0 -6 -11 -21 -25 -34
-13 -14 -22 -25 -19 -25 2 0 0 -9 -6 -20 -6 -11 -15 -20 -21 -20 -13 0 -39
-25 -39 -38 0 -5 -7 -15 -15 -22 -9 -7 -13 -15 -10 -18 8 -8 -16 -32 -26 -26
-5 3 -12 -9 -15 -26 -4 -19 -17 -37 -35 -47 -16 -10 -29 -23 -29 -30 0 -7 -4
-13 -8 -13 -10 0 -67 -88 -67 -104 0 -16 -41 -66 -53 -66 -6 0 -14 -9 -17 -20
-3 -11 -11 -20 -16 -20 -6 0 -7 -4 -4 -10 3 -5 1 -10 -5 -10 -6 0 -9 -4 -5 -9
3 -5 -6 -22 -20 -37 -19 -21 -22 -29 -13 -36 10 -6 7 -10 -9 -14 -17 -5 -37
-29 -34 -41 1 -2 -8 -12 -19 -23 -12 -12 -18 -25 -15 -30 4 -6 1 -10 -4 -10
-6 0 -11 -7 -11 -15 0 -8 -4 -15 -9 -15 -5 0 -19 -25 -31 -55 -12 -30 -27 -55
-32 -55 -5 0 -7 -4 -4 -9 3 -5 -1 -12 -10 -15 -9 -3 -14 -13 -11 -20 3 -8 -1
-20 -9 -26 -8 -7 -14 -19 -14 -27 0 -7 -7 -16 -15 -19 -8 -4 -13 -10 -10 -14
3 -5 1 -11 -5 -15 -5 -3 -10 -14 -10 -24 0 -9 -9 -27 -20 -39 -12 -12 -18 -22
-14 -22 3 0 1 -7 -6 -15 -7 -8 -9 -15 -5 -15 4 0 1 -7 -6 -17 -8 -9 -13 -25
-11 -35 2 -11 -3 -25 -12 -31 -19 -16 -66 -105 -66 -128 0 -10 -4 -20 -9 -23
-5 -3 -11 -16 -14 -28 -3 -13 -15 -48 -27 -78 -40 -101 -69 -185 -75 -220 -3
-19 -12 -41 -19 -50 -16 -20 -21 -80 -6 -80 7 0 -1 -12 -18 -28 -25 -24 -27
-29 -15 -41 11 -10 12 -16 3 -21 -6 -4 -12 -13 -14 -21 -1 -8 -11 -32 -21 -54
-10 -22 -20 -51 -21 -65 -2 -14 -5 -38 -8 -55 -2 -16 -4 -38 -5 -47 -1 -9 -8
-24 -17 -32 -8 -9 -11 -16 -6 -16 6 0 8 -9 5 -20 -3 -11 -9 -20 -13 -20 -9 0
-7 -26 2 -36 4 -3 -1 -22 -10 -42 -13 -27 -14 -36 -4 -39 6 -3 10 -9 6 -14 -3
-5 -7 -19 -10 -31 -7 -33 -12 -52 -14 -58 -1 -3 -2 -8 -1 -12 0 -5 -3 -8 -8
-8 -5 0 -8 -8 -7 -17 2 -9 -1 -35 -5 -57 -4 -23 -3 -46 2 -52 5 -6 4 -15 -2
-21 -5 -5 -11 -31 -12 -56 -1 -26 -4 -47 -7 -47 -3 0 -7 -26 -8 -57 -4 -128
-9 -168 -21 -165 -9 2 -8 -4 3 -19 14 -21 13 -35 -6 -76 -8 -17 -7 -25 6 -38
16 -17 16 -62 -1 -58 -13 2 -14 -87 -1 -111 7 -12 7 -16 0 -12 -12 7 -10 -42
2 -63 6 -10 5 -12 -2 -7 -7 4 -12 1 -12 -8 0 -8 5 -16 12 -18 8 -3 9 -11 3
-24 -12 -27 -14 -55 -4 -48 10 6 10 5 13 -46 1 -19 -3 -38 -8 -42 -6 -4 -3
-16 6 -30 11 -16 14 -43 13 -87 -2 -44 2 -72 11 -87 10 -15 12 -24 4 -29 -11
-7 -8 -34 9 -77 6 -16 6 -30 1 -33 -5 -3 -7 -15 -4 -28 2 -12 7 -40 10 -62 11
-72 12 -80 14 -80 2 0 4 -11 6 -25 9 -74 12 -88 27 -116 10 -19 12 -35 7 -40
-6 -6 -6 -23 0 -44 12 -39 22 -89 23 -107 0 -7 5 -13 10 -13 5 0 7 -13 4 -30
-4 -17 -2 -30 3 -30 6 0 9 -3 8 -7 -1 -5 4 -19 11 -32 9 -17 10 -21 1 -16 -14
9 -6 -23 17 -68 7 -15 12 -35 11 -44 -2 -10 7 -22 20 -29 15 -7 20 -14 13 -18
-13 -9 -15 -63 -2 -68 6 -1 12 -15 15 -30 2 -14 9 -35 15 -46 6 -11 8 -22 5
-25 -3 -3 1 -16 10 -29 8 -12 16 -27 17 -33 1 -5 3 -14 5 -20 2 -5 8 -29 14
-53 6 -23 15 -40 20 -37 6 4 10 -8 10 -25 0 -17 6 -38 14 -45 7 -8 17 -31 21
-52 4 -21 11 -40 16 -43 5 -3 10 -16 12 -28 2 -12 9 -28 15 -34 7 -7 12 -18
12 -25 0 -7 4 -13 9 -13 5 0 13 -15 17 -32 3 -18 13 -43 21 -55 8 -12 11 -28
7 -34 -4 -7 -3 -9 3 -6 10 6 31 -25 37 -53 4 -20 18 -54 25 -60 3 -3 15 -23
26 -45 12 -22 31 -44 43 -50 14 -6 22 -18 21 -30 -3 -41 1 -55 17 -55 8 0 12
-4 9 -10 -3 -5 -1 -10 4 -10 6 0 11 -11 11 -23 0 -13 9 -32 20 -42 11 -10 17
-22 14 -26 -3 -5 0 -9 6 -9 6 0 8 -4 5 -10 -3 -5 -1 -10 4 -10 6 0 11 -7 11
-15 0 -8 5 -15 10 -15 6 0 10 -7 10 -15 0 -8 4 -15 8 -15 4 0 23 -26 42 -58
19 -31 38 -58 42 -60 5 -2 8 -8 8 -14 0 -11 63 -90 102 -128 15 -15 25 -30 21
-33 -3 -4 -1 -7 6 -7 7 0 10 -4 7 -9 -3 -5 1 -14 9 -21 8 -7 15 -18 15 -24 0
-7 18 -30 39 -51 22 -22 37 -43 35 -47 -3 -5 2 -8 10 -8 9 0 16 -6 16 -13 0
-7 14 -27 30 -45 17 -18 30 -40 30 -49 0 -9 3 -13 6 -10 9 9 46 -12 39 -23 -3
-5 5 -16 17 -25 13 -8 23 -19 23 -24 0 -5 11 -20 25 -34 14 -14 30 -31 35 -37
6 -6 31 -30 56 -53 25 -23 48 -50 52 -60 4 -11 16 -21 27 -24 11 -3 20 -9 20
-14 0 -4 11 -18 25 -31 41 -39 50 -47 61 -59 38 -38 64 -59 73 -59 5 0 13 -9
16 -20 4 -11 11 -18 16 -15 5 4 9 0 9 -7 0 -7 20 -26 45 -41 25 -16 49 -36 55
-45 5 -10 10 -14 10 -9 0 4 9 -2 20 -13 11 -11 27 -20 35 -20 8 0 15 -6 15
-12 0 -7 18 -26 40 -41 22 -16 40 -33 40 -38 0 -5 6 -9 13 -9 6 0 26 -13 43
-29 17 -16 46 -37 65 -46 19 -10 54 -35 78 -56 24 -21 47 -36 52 -34 4 3 14
-4 22 -15 7 -11 17 -17 20 -13 4 3 7 1 7 -5 0 -7 7 -12 15 -12 8 0 15 -4 15
-10 0 -5 9 -10 21 -10 12 0 30 -11 41 -25 11 -14 24 -23 29 -20 5 4 9 2 9 -4
0 -6 7 -8 15 -5 8 4 15 1 15 -4 0 -6 9 -14 20 -17 12 -4 28 -15 38 -25 9 -10
26 -20 37 -22 11 -1 31 -13 45 -25 14 -13 32 -23 42 -23 9 0 23 -7 32 -15 8
-8 24 -15 36 -15 12 0 19 -4 16 -8 -3 -5 7 -15 22 -22 15 -7 36 -17 47 -23 11
-5 27 -13 35 -17 8 -4 30 -15 48 -24 17 -10 38 -14 45 -10 6 4 9 4 5 0 -10
-11 14 -34 30 -29 7 3 20 -2 30 -10 18 -17 72 -41 85 -39 4 1 7 -3 7 -10 0 -6
3 -8 6 -5 4 3 16 1 28 -5 11 -7 25 -11 30 -10 4 2 14 -3 22 -9 8 -6 14 -8 14
-5 0 4 7 0 16 -8 8 -9 21 -16 27 -17 28 -2 50 -8 60 -18 6 -6 19 -11 29 -11
11 0 37 -9 58 -19 22 -11 40 -15 40 -9 0 6 12 3 26 -7 15 -9 42 -18 61 -20 19
-1 38 -7 42 -13 3 -6 27 -16 51 -22 25 -6 53 -13 63 -15 9 -3 25 -7 35 -9 9
-2 28 -7 42 -10 14 -4 45 -9 70 -12 25 -2 53 -6 63 -7 10 -1 21 -7 25 -14 4
-6 20 -14 36 -17 16 -3 32 -9 35 -13 3 -4 20 -9 36 -10 17 0 47 -4 68 -6 20
-3 37 -1 37 4 0 5 15 1 34 -9 19 -9 32 -21 29 -25 -3 -5 4 -4 16 3 13 6 31 8
44 3 12 -4 27 -8 32 -9 6 -1 12 -3 15 -4 3 -1 28 -3 55 -5 28 -1 57 -5 65 -8
8 -3 40 -8 70 -11 30 -3 75 -7 100 -10 25 -2 52 -7 61 -11 10 -3 20 -1 24 5 6
9 10 9 16 -1 7 -11 9 -11 9 -1 0 9 6 10 18 4 9 -4 24 -8 32 -7 8 1 20 -3 27
-7 6 -5 14 -5 18 2 4 6 12 7 22 1 9 -5 29 -5 45 -1 15 5 28 5 28 1 0 -13 302
-7 326 7 18 9 24 9 34 -3 7 -8 16 -12 21 -9 9 5 107 14 204 18 28 1 56 5 63 9
6 5 12 4 12 -1 0 -7 39 -9 48 -2 1 2 7 4 12 5 6 1 11 4 13 5 3 3 57 10 117 14
53 3 129 20 160 35 8 4 33 7 55 6 22 -2 49 2 60 9 20 11 49 16 98 19 15 1 27
4 27 7 0 3 12 6 28 7 37 1 69 9 110 29 18 8 40 13 47 10 8 -3 17 -1 21 5 3 6
12 8 20 5 8 -3 14 -1 14 4 0 6 3 9 8 8 4 -1 17 4 30 11 13 7 38 13 55 13 18 0
39 6 47 14 8 7 18 13 23 12 25 0 88 15 93 23 3 5 14 9 25 9 11 0 38 9 59 20
22 11 40 17 40 14 0 -4 8 0 18 9 10 10 22 14 25 11 4 -4 14 -1 23 7 9 7 21 14
28 15 6 2 27 8 46 15 61 21 65 22 73 21 4 -1 7 2 7 8 0 5 9 10 19 10 10 0 22
7 25 16 3 8 10 12 16 9 5 -3 10 -1 10 5 0 6 8 10 18 9 9 -2 28 3 42 11 14 8
31 15 39 16 8 2 18 10 23 18 5 8 15 13 22 10 7 -3 28 8 46 25 34 30 70 46 70
30 0 -5 9 0 20 11 11 11 29 20 39 20 11 0 21 7 23 16 2 10 15 18 32 20 15 2
37 11 47 20 10 9 19 13 19 8 0 -5 8 3 18 19 10 15 21 25 24 22 7 -8 58 16 58
27 0 5 5 6 10 3 6 -3 10 -2 10 4 0 5 10 13 23 16 12 4 32 16 43 27 12 11 28
20 36 22 15 2 61 36 109 81 15 13 38 27 51 30 14 4 36 17 50 30 13 12 39 30
56 39 17 9 37 28 45 43 7 16 19 27 25 25 7 -1 15 5 18 13 4 8 13 15 20 15 8 0
17 7 20 15 4 8 10 13 14 10 5 -3 18 8 29 24 12 17 30 33 41 36 10 3 33 19 51
36 17 16 35 29 39 29 5 0 12 9 15 20 3 11 11 20 16 20 6 0 16 6 23 13 7 6 30
25 50 41 22 17 35 35 32 43 -3 8 -2 12 2 9 11 -7 52 22 52 35 0 14 20 32 53
46 15 7 27 17 27 22 0 14 57 71 64 64 3 -3 8 6 12 20 3 15 9 25 13 24 3 -1 20
10 36 26 16 15 33 27 38 27 4 0 6 4 3 9 -7 10 13 35 97 122 31 33 57 64 57 70
0 5 12 22 28 37 47 49 96 115 97 134 2 24 45 78 62 78 7 0 13 7 13 17 0 9 13
28 29 42 16 15 29 35 28 46 -1 12 7 24 20 30 12 5 24 19 27 30 3 11 13 29 23
40 27 30 55 75 46 75 -5 0 -2 4 6 9 7 5 14 22 16 38 3 34 25 73 42 73 11 0 25
28 21 40 -1 3 10 17 25 33 16 15 25 32 22 37 -3 6 -1 10 5 10 7 0 8 6 1 18 -8
15 -4 22 20 36 19 11 29 25 29 42 0 13 4 24 9 24 5 0 15 16 22 35 7 19 16 35
20 35 4 0 10 10 14 23 8 25 7 22 24 62 7 17 17 37 22 45 15 25 33 74 33 90 1
8 9 24 18 34 10 11 18 32 18 48 0 15 3 28 8 28 4 0 13 9 20 21 11 17 11 20 0
13 -10 -6 -9 -3 1 10 8 9 16 29 18 44 3 15 5 34 7 43 1 8 12 26 23 38 12 13
19 29 16 37 -3 8 -1 14 5 14 6 0 9 8 7 18 -1 9 4 30 12 46 21 41 42 115 47
165 2 24 10 47 17 52 7 4 14 24 15 44 2 20 8 43 14 50 7 8 10 24 7 34 -3 11 1
28 8 38 7 10 14 21 16 24 2 3 -3 14 -11 24 -12 15 -12 17 -1 10 11 -6 13 -4 8
8 -3 8 0 18 8 21 9 3 12 20 11 50 -1 31 2 47 12 51 7 3 11 8 9 12 -3 5 -1 17
3 28 4 11 3 33 -1 49 -7 22 -4 37 8 55 9 15 18 46 19 71 3 61 6 73 24 88 8 8
10 11 4 8 -10 -5 -10 19 0 154 1 25 6 52 10 61 4 9 6 20 5 25 -1 5 0 11 1 14
8 20 7 197 -2 213 -8 16 -7 23 3 31 18 15 22 41 9 65 -6 12 -6 22 -1 26 12 7
5 49 -9 53 -6 2 -6 10 0 21 15 29 19 92 5 104 -12 11 -8 60 5 52 4 -2 7 14 6
35 0 22 -4 40 -8 40 -8 0 -5 21 5 38 5 6 4 12 -2 12 -6 0 -7 7 -4 17 5 11 3
14 -6 8 -10 -6 -11 -3 -2 13 8 14 8 23 1 27 -8 5 -7 12 1 22 8 9 9 17 3 21 -5
4 -10 27 -11 52 -5 106 -10 146 -19 165 -5 11 -9 48 -9 82 0 35 -4 63 -9 63
-5 0 -6 3 -3 7 4 3 2 12 -5 20 -6 8 -11 30 -10 50 1 22 -5 45 -16 57 -9 11
-11 16 -4 12 9 -6 11 0 7 25 -3 17 -10 41 -16 51 -6 11 -8 31 -4 45 3 14 1 31
-6 39 -6 8 -13 33 -14 56 -1 24 -7 55 -13 69 -6 15 -8 30 -5 33 4 3 2 6 -4 6
-6 0 -14 19 -17 43 -8 59 -11 71 -20 85 -4 6 -5 12 -2 12 4 0 -3 16 -14 37
-10 20 -17 40 -14 45 3 4 1 8 -3 8 -5 0 -8 12 -7 28 1 15 -5 35 -13 44 -8 9
-12 21 -9 27 4 5 2 12 -3 15 -5 4 -8 14 -6 24 1 9 -3 24 -10 32 -7 8 -15 27
-18 41 -4 14 -16 47 -29 75 -12 27 -22 58 -23 68 -1 11 -7 22 -13 24 -7 2 -12
14 -12 26 0 12 -7 32 -16 44 -8 12 -12 22 -9 22 4 0 -1 7 -9 16 -9 8 -17 22
-17 30 -1 8 -2 18 -3 24 0 5 -9 15 -19 22 -10 8 -18 29 -20 52 -2 22 -13 49
-25 63 -12 14 -22 33 -22 44 0 10 -9 28 -20 39 -11 11 -20 26 -20 34 0 8 -4
17 -9 20 -5 3 -12 18 -16 33 -3 16 -12 35 -20 43 -7 8 -27 42 -44 75 -18 33
-40 69 -50 80 -9 11 -17 27 -16 35 0 8 -4 20 -10 27 -5 7 -16 19 -22 27 -7 8
-13 20 -13 26 0 5 -5 10 -12 10 -6 0 -8 3 -5 7 4 3 -5 16 -18 29 -14 13 -25
28 -25 34 0 5 -5 10 -11 10 -5 0 -7 5 -4 11 4 5 -3 19 -16 30 -13 11 -24 27
-25 37 -2 9 -12 23 -23 31 -12 7 -21 20 -21 28 0 15 -30 51 -30 36 0 -4 -6 3
-13 17 -7 14 -23 30 -35 35 -15 6 -21 16 -19 27 3 10 -6 30 -19 45 -14 15 -37
46 -52 68 -15 23 -31 42 -37 44 -15 5 -37 40 -31 50 3 4 -6 13 -19 19 -14 7
-25 16 -25 22 0 6 -4 9 -9 6 -5 -3 -19 14 -32 39 -13 24 -33 49 -44 55 -11 6
-31 26 -44 45 -13 19 -52 64 -87 99 -63 62 -76 85 -51 87 6 0 -1 5 -18 11 -16
6 -37 17 -47 25 -14 13 -33 19 -60 22 -5 1 -8 9 -8 20 0 19 -58 74 -70 66 -4
-3 -13 2 -20 10 -7 8 -9 15 -6 15 4 0 1 6 -6 14 -7 8 -16 12 -19 10 -3 -2 -12
8 -19 21 -7 14 -19 25 -26 25 -8 0 -21 11 -29 24 -9 13 -24 27 -33 30 -26 10
-68 36 -58 36 13 0 -33 38 -55 45 -10 3 -21 15 -24 26 -4 10 -13 19 -21 19 -8
0 -24 9 -36 20 -12 10 -25 17 -30 14 -4 -3 -8 2 -8 11 0 9 -4 14 -9 11 -4 -3
-21 8 -37 24 -16 16 -35 30 -41 30 -7 0 -13 5 -13 10 0 6 -3 9 -7 8 -12 -3
-73 31 -73 41 0 8 -27 19 -43 17 -4 -1 -16 14 -27 32 -14 23 -26 32 -36 28 -9
-3 -22 1 -30 9 -9 8 -25 15 -36 15 -11 0 -22 8 -25 19 -5 18 -58 49 -75 43 -5
-1 -8 3 -8 10 0 6 -3 9 -6 5 -4 -3 -14 3 -23 14 -10 12 -29 20 -52 21 -26 1
-38 7 -45 22 -5 12 -15 20 -22 18 -7 -1 -12 3 -12 8 0 6 -13 8 -28 5 -22 -4
-36 3 -63 28 -32 31 -116 77 -139 77 -5 0 -10 4 -10 8 0 4 -14 9 -30 10 -17 1
-39 11 -50 22 -10 10 -36 22 -57 26 -21 3 -45 12 -53 19 -8 7 -26 15 -40 17
-14 1 -31 9 -38 16 -8 7 -17 10 -22 7 -5 -3 -11 -1 -15 4 -3 6 -12 8 -19 5 -7
-3 -16 2 -19 10 -4 9 -16 16 -27 16 -11 0 -20 4 -20 8 0 4 -8 8 -17 9 -10 1
-25 3 -33 6 -8 2 -28 8 -45 12 -16 4 -32 12 -35 16 -3 5 -21 10 -40 11 -19 2
-41 9 -49 16 -8 8 -22 11 -32 9 -10 -3 -27 2 -38 10 -12 8 -21 11 -21 7 0 -3
-7 -1 -15 6 -8 7 -21 10 -28 7 -7 -3 -21 1 -31 9 -13 9 -24 10 -37 4 -13 -7
-27 -4 -53 11 -27 15 -36 17 -36 7 -1 -9 -5 -7 -14 5 -8 10 -23 18 -33 16 -10
-1 -29 3 -43 8 -14 6 -30 8 -37 6 -7 -3 -18 -1 -25 3 -16 10 -30 13 -95 15
-29 1 -53 7 -53 12 0 6 -3 8 -6 5 -3 -3 -26 0 -52 6 -26 7 -72 14 -102 15 -30
1 -57 5 -60 9 -5 7 -32 10 -113 13 -26 1 -50 6 -53 10 -3 5 -10 6 -16 3 -16
-10 -81 -12 -93 -3 -13 10 -96 7 -112 -4 -8 -5 -13 -4 -13 2 0 5 -9 8 -20 6
-11 -2 -26 3 -34 11 -16 15 -41 20 -32 5 3 -5 -2 -12 -11 -15 -9 -4 -20 -1
-25 6 -4 7 -8 9 -8 3 0 -5 -5 -3 -10 5 -8 12 -13 13 -30 3 -23 -15 -42 -17
-20 -3 11 7 7 10 -18 10 -18 0 -31 -4 -28 -8 3 -5 -1 -9 -9 -9 -8 0 -12 4 -9
9 3 4 -11 8 -30 8 -20 0 -36 -4 -36 -10 0 -5 -7 -10 -16 -10 -8 0 -12 5 -9 10
4 6 -5 10 -20 10 -14 0 -24 -4 -21 -8 2 -4 -4 -9 -15 -9 -11 -1 -17 2 -14 8 8
11 5 11 -20 -4z"/>
</g>
</svg>
