<?xml version="1.0" standalone="no"?>
<!DOCTYPE svg PUBLIC "-//W3C//DTD SVG 20010904//EN"
 "http://www.w3.org/TR/2001/REC-SVG-20010904/DTD/svg10.dtd">
<svg version="1.0" xmlns="http://www.w3.org/2000/svg"
 width="640.000000pt" height="640.000000pt" viewBox="0 0 640.000000 640.000000"
 preserveAspectRatio="xMidYMid meet">
<metadata>
Created by potrace 1.11, written by Peter Selinger 2001-2013
</metadata>
<g transform="translate(0.000000,640.000000) scale(0.100000,-0.100000)"
fill="#000000" stroke="none">
<path d="M0 3200 l0 -3200 3200 0 3200 0 0 3200 0 3200 -3200 0 -3200 0 0
-3200z m2416 1254 c25 -42 27 -55 25 -129 -1 -45 -9 -106 -17 -136 -9 -30 -20
-79 -24 -109 -5 -30 -13 -63 -19 -75 -14 -30 -62 -176 -66 -202 -2 -11 -8 -36
-14 -55 -5 -18 -22 -71 -37 -118 -14 -47 -31 -94 -37 -105 -6 -11 -10 -24 -9
-29 4 -14 -24 -98 -49 -148 -5 -10 -9 -26 -9 -35 0 -10 -6 -35 -14 -58 -8 -22
-26 -80 -41 -130 -15 -49 -30 -99 -35 -110 -5 -11 -14 -42 -20 -70 -15 -66
-58 -205 -70 -227 -6 -10 -10 -28 -10 -40 0 -12 -6 -29 -14 -37 -7 -9 -18 -38
-24 -66 -6 -27 -20 -77 -32 -110 -21 -62 -24 -68 -59 -147 -12 -26 -21 -51
-21 -54 0 -4 -11 -31 -25 -60 -14 -30 -31 -70 -38 -91 -15 -45 -57 -74 -84
-57 -19 12 -29 65 -17 92 4 10 8 40 10 67 1 28 7 73 13 100 5 28 15 88 22 135
7 47 15 92 19 100 5 8 18 53 30 100 12 47 29 108 37 135 19 59 24 79 24 82 0
2 7 22 15 45 9 24 18 54 20 68 2 14 8 34 13 45 17 42 62 191 61 205 0 9 5 21
11 27 6 6 15 30 20 54 6 24 17 51 26 61 9 11 13 26 9 41 -3 14 0 32 9 43 8 10
15 31 15 46 0 15 4 29 9 33 5 3 15 30 22 60 7 30 16 55 21 55 5 0 8 8 7 18 -4
23 27 125 59 192 14 30 25 61 23 68 -2 14 19 89 46 157 8 22 19 49 23 60 4 11
12 31 18 45 16 37 26 74 24 84 -2 5 4 23 13 40 16 31 18 36 48 91 9 17 24 45
34 63 9 17 20 32 24 32 5 0 20 -21 35 -46z m1042 -10 l31 -15 -3 -82 c-1 -45
-8 -98 -14 -117 -32 -99 -43 -144 -38 -156 3 -7 1 -16 -4 -19 -6 -4 -7 -17 -4
-29 4 -17 0 -28 -16 -39 -18 -13 -20 -18 -10 -37 9 -17 8 -29 -8 -63 -10 -23
-22 -62 -25 -87 -5 -39 -26 -118 -45 -170 -3 -8 -6 -22 -8 -31 -2 -9 -9 -29
-15 -45 -7 -16 -14 -38 -15 -49 -3 -23 -41 -163 -51 -185 -3 -8 -7 -19 -8 -25
-4 -27 -19 -71 -28 -83 -6 -7 -12 -28 -13 -45 -2 -31 -5 -45 -16 -77 -5 -14
-28 -99 -50 -185 -5 -22 -14 -49 -18 -60 -5 -11 -18 -60 -30 -110 -12 -49 -25
-99 -30 -110 -16 -37 -40 -118 -40 -136 0 -9 -7 -22 -15 -29 -8 -7 -15 -21
-15 -31 0 -10 -11 -51 -24 -91 -13 -40 -26 -85 -30 -99 -3 -14 -13 -43 -23
-65 -9 -21 -17 -41 -18 -44 -2 -14 -51 -108 -69 -133 -23 -32 -45 -34 -69 -7
-14 16 -16 34 -12 97 5 85 13 150 22 173 4 8 8 24 9 35 9 61 27 141 35 149 5
6 9 24 9 40 1 17 9 56 20 86 11 30 19 69 20 87 0 17 5 35 11 38 6 4 8 13 5 21
-3 8 -2 22 3 32 14 29 32 86 36 117 3 16 16 65 29 110 14 44 32 107 41 140 9
33 19 67 22 75 4 8 5 21 4 27 -1 7 6 27 15 45 10 18 19 51 21 73 2 21 10 49
18 62 8 12 15 33 15 45 0 13 10 55 21 93 12 39 31 106 43 150 11 44 25 87 30
94 5 8 11 24 12 35 4 39 22 98 33 109 6 6 11 23 11 38 0 15 5 31 10 34 6 3 10
16 10 28 0 12 7 35 15 51 8 15 15 37 15 47 0 10 5 21 10 24 6 3 10 17 10 30 0
13 6 36 14 52 8 15 25 56 36 90 17 48 79 143 94 143 2 0 17 -7 34 -16z m998
-32 c6 -4 18 -20 27 -37 15 -31 11 -93 -12 -168 -13 -41 -31 -122 -38 -167 -3
-19 -9 -39 -13 -45 -4 -5 -10 -29 -14 -53 -3 -24 -10 -51 -15 -60 -9 -17 -49
-178 -55 -217 -1 -11 -8 -29 -14 -40 -12 -22 -41 -135 -46 -177 -1 -15 -8 -33
-14 -40 -6 -8 -10 -27 -10 -43 0 -17 -5 -50 -12 -75 -7 -25 -14 -54 -16 -65
-4 -29 -31 -143 -44 -190 -7 -22 -14 -58 -17 -80 -3 -22 -12 -48 -20 -57 -9
-10 -13 -26 -10 -37 5 -22 -7 -93 -22 -126 -6 -11 -12 -33 -15 -50 -14 -84
-25 -124 -43 -165 -11 -25 -25 -66 -33 -92 -7 -26 -18 -53 -26 -59 -7 -6 -11
-16 -8 -22 5 -14 -57 -199 -74 -220 -7 -8 -9 -16 -6 -19 7 -7 -30 -116 -45
-131 -6 -6 -11 -17 -11 -24 0 -8 -12 -13 -30 -13 -34 0 -35 2 -20 115 5 39 11
86 14 105 19 158 27 212 35 260 6 30 18 100 26 155 9 55 20 109 25 120 8 18
15 57 26 138 2 15 10 37 18 50 7 12 14 42 14 67 0 25 14 95 30 155 16 61 29
119 29 130 0 11 13 65 28 120 15 55 32 125 37 155 6 30 14 59 19 65 5 5 9 19
9 32 0 13 4 31 9 41 5 9 17 53 26 97 10 44 24 98 32 120 8 22 14 40 12 40 -6
0 35 152 46 170 7 11 20 47 30 80 9 33 21 71 27 85 5 14 17 45 25 69 26 77 98
131 139 103z"/>
</g>
</svg>
