<?xml version="1.0" standalone="no"?>
<!DOCTYPE svg PUBLIC "-//W3C//DTD SVG 20010904//EN"
 "http://www.w3.org/TR/2001/REC-SVG-20010904/DTD/svg10.dtd">
<svg version="1.0" xmlns="http://www.w3.org/2000/svg"
 width="640.000000pt" height="640.000000pt" viewBox="0 0 640.000000 640.000000"
 preserveAspectRatio="xMidYMid meet">
<metadata>
Created by potrace 1.11, written by Peter Selinger 2001-2013
</metadata>
<g transform="translate(0.000000,640.000000) scale(0.100000,-0.100000)"
fill="#000000" stroke="none">
<path d="M0 3200 l0 -3200 3200 0 3200 0 0 3200 0 3200 -3200 0 -3200 0 0
-3200z m4345 1859 c3 -4 19 -6 34 -3 16 4 32 1 35 -5 4 -6 11 -9 17 -6 18 12
195 -84 267 -144 22 -18 44 -36 49 -40 22 -15 143 -162 143 -174 0 -7 8 -22
18 -33 23 -24 92 -147 92 -163 0 -6 11 -34 25 -62 43 -90 94 -288 100 -389 3
-36 9 -85 14 -110 5 -25 10 -70 11 -100 2 -70 -7 -267 -14 -300 -2 -14 -9 -56
-14 -95 -10 -72 -37 -161 -74 -244 -22 -50 -30 -70 -48 -118 -6 -17 -18 -34
-26 -37 -8 -3 -14 -11 -14 -17 0 -7 -7 -20 -16 -30 -9 -10 -23 -31 -32 -48
-26 -46 -140 -169 -173 -187 -17 -8 -34 -26 -39 -40 -5 -13 -20 -28 -32 -33
-13 -5 -41 -26 -63 -46 -71 -66 -224 -159 -248 -149 -7 2 -22 -4 -32 -16 -10
-11 -23 -20 -30 -20 -7 0 -27 -7 -45 -16 -18 -9 -40 -17 -49 -18 -9 -1 -38
-12 -65 -24 -27 -12 -54 -22 -60 -22 -7 0 -16 -4 -21 -8 -14 -12 -161 -54
-177 -51 -7 2 -22 -2 -33 -8 -20 -10 -133 -39 -190 -47 -16 -3 -59 -10 -95
-15 -36 -6 -96 -13 -135 -16 -38 -3 -85 -8 -103 -11 -18 -4 -38 -1 -46 5 -10
8 -20 8 -42 -4 -18 -9 -61 -15 -119 -16 -82 -1 -399 -9 -435 -11 -27 -1 -404
13 -440 17 -19 2 -62 6 -95 10 -33 4 -91 8 -130 10 -38 1 -97 6 -130 10 -33 4
-82 9 -110 10 -69 5 -109 10 -185 25 -36 6 -81 13 -100 16 -19 2 -62 8 -95 15
-33 6 -68 11 -79 10 -10 0 -71 14 -135 31 -64 17 -126 33 -138 35 -26 6 -69
50 -59 60 11 11 196 5 211 -7 6 -5 15 -7 18 -3 6 6 79 5 172 -2 60 -5 232 -13
395 -20 80 -3 186 -8 235 -11 191 -10 686 -27 755 -26 160 2 296 8 305 13 6 3
46 7 90 7 44 1 94 4 110 6 17 3 66 7 110 11 44 3 112 12 150 20 39 8 86 16
105 18 20 2 41 7 48 11 7 4 24 5 36 2 14 -3 28 0 35 8 6 7 29 16 51 20 38 6
205 56 265 79 17 7 32 12 35 13 3 0 13 4 23 9 10 4 20 5 23 2 3 -3 15 4 26 15
12 12 28 18 39 15 10 -3 19 -1 19 3 0 4 42 29 93 55 108 55 145 79 210 137 98
89 247 252 247 271 0 8 9 22 20 32 11 10 20 24 20 31 0 14 36 89 53 112 6 7
21 55 34 105 13 51 26 99 30 107 3 8 7 26 8 40 2 14 6 49 9 79 16 127 4 413
-18 456 -10 19 -14 42 -10 63 4 18 2 32 -4 32 -5 0 -15 21 -21 48 -25 96 -43
152 -52 158 -5 3 -9 13 -9 23 0 9 -16 48 -35 85 -19 38 -35 72 -35 77 0 4 -13
23 -30 41 -16 18 -30 37 -30 42 0 10 -8 20 -75 86 -25 25 -45 53 -45 63 0 11
-8 17 -24 17 -13 0 -35 9 -49 20 -57 45 -169 83 -237 81 -94 -4 -139 -25 -227
-110 -46 -44 -83 -82 -83 -86 0 -5 -19 -28 -82 -96 -10 -10 -18 -28 -18 -39 0
-12 -11 -32 -24 -45 -38 -38 -110 -355 -84 -371 4 -3 8 -13 8 -22 0 -10 12
-51 26 -92 45 -132 46 -149 14 -182 -42 -41 -89 -39 -148 10 -26 20 -51 43
-55 49 -10 16 -108 63 -131 63 -9 0 -24 4 -34 9 -27 15 -55 23 -87 27 -27 3
-70 10 -194 34 -24 4 -50 6 -58 3 -7 -3 -20 0 -27 6 -10 9 -16 9 -21 1 -4 -7
-21 -9 -44 -5 -79 13 -324 6 -413 -12 -48 -10 -90 -22 -94 -26 -4 -4 -20 -7
-35 -7 -16 0 -70 -21 -121 -46 -51 -26 -104 -52 -117 -58 -14 -6 -36 -21 -50
-34 -13 -12 -35 -25 -48 -28 -12 -3 -29 -18 -37 -33 -69 -128 -68 -124 -61
-180 4 -30 12 -66 18 -80 6 -14 11 -32 12 -39 0 -7 5 -16 10 -20 6 -4 23 -27
40 -52 96 -145 253 -230 457 -246 86 -7 90 -7 198 -1 162 11 223 18 283 33 32
7 67 14 77 14 10 0 31 6 47 14 88 45 190 90 202 91 8 0 16 6 19 13 10 30 112
5 112 -27 0 -23 -33 -81 -64 -116 -20 -21 -36 -44 -36 -51 0 -7 -10 -16 -22
-20 -13 -4 -50 -20 -83 -36 -33 -16 -71 -30 -85 -32 -14 -1 -32 -5 -40 -9 -26
-11 -183 -39 -235 -42 -27 -2 -72 -6 -100 -10 -78 -9 -314 -6 -378 5 -89 14
-209 54 -249 81 -14 11 -29 19 -33 19 -19 0 -108 77 -156 134 -78 93 -89 108
-89 125 0 8 -11 29 -25 47 -24 31 -39 64 -53 109 -3 11 -6 58 -7 105 -3 96 18
171 63 230 38 50 117 130 129 130 5 0 18 9 28 20 10 11 22 20 27 20 5 0 24 10
41 23 30 22 105 60 152 78 11 4 36 14 55 22 19 9 47 18 63 21 15 3 39 9 55 12
15 3 34 8 42 11 8 3 20 7 25 8 6 0 17 4 25 7 98 41 736 18 825 -29 11 -6 38
-13 60 -16 22 -4 61 -13 88 -21 l47 -14 1 31 c4 135 7 158 31 239 6 20 11 45
13 55 2 24 23 75 39 93 7 8 16 27 20 42 3 14 22 47 41 72 19 26 35 49 35 52 0
23 116 164 135 164 6 0 18 13 27 28 10 16 37 42 60 58 24 16 49 35 56 42 7 6
20 12 29 12 9 0 21 7 27 16 22 29 227 57 241 33z m138 -1183 c32 -25 61 -46
66 -48 4 -2 17 -30 29 -63 17 -51 19 -69 10 -120 -10 -65 -33 -99 -83 -119
-24 -10 -35 -10 -60 3 -38 19 -55 36 -55 54 0 8 -6 17 -14 20 -7 3 -30 26 -51
51 -34 41 -38 52 -37 101 0 70 39 142 80 151 15 3 32 7 37 9 6 2 13 4 16 4 3
1 31 -19 62 -43z m-438 -375 c23 -4 47 -11 55 -16 8 -5 22 -8 31 -7 33 6 70
-18 86 -55 31 -76 -9 -189 -78 -220 -21 -9 -39 -22 -39 -29 0 -11 -20 -24 -48
-30 -8 -1 -16 -5 -19 -8 -10 -10 -63 28 -63 46 0 9 -5 20 -11 24 -43 26 -70
215 -35 253 9 10 16 21 16 26 0 15 35 35 50 28 8 -3 33 -9 55 -12z"/>
</g>
</svg>
